#define a4c_width 12
#define a4c_height 12
static unsigned char a4c_bits[] = {
   0x70, 0x00, 0x70, 0x00, 0xac, 0x01, 0x22, 0x06, 0x77, 0x0e, 0x77, 0x0e,
   0x77, 0x0e, 0x22, 0x04, 0x54, 0x02, 0x8e, 0x03, 0x8e, 0x03, 0x8e, 0x03};
