#define c_width 12
#define c_height 12
static unsigned char c_bits[] = {
   0xff, 0x0f, 0x01, 0x08, 0xf9, 0x09, 0x0d, 0x0b, 0x05, 0x08, 0x05, 0x08,
   0x05, 0x08, 0x05, 0x08, 0x0d, 0x0b, 0xf9, 0x09, 0x01, 0x08, 0xff, 0x0f};
