#define xterm_width 75
#define xterm_height 30
static char xterm_bits[] = {
   0x00, 0x00, 0x00, 0x00, 0x00, 0x00, 0x00, 0x00, 0x00, 0x00, 0x00, 0x00,
   0x00, 0x80, 0xff, 0xff, 0x01, 0x00, 0x00, 0x00, 0x00, 0x00, 0x00, 0xc0,
   0xff, 0xff, 0x01, 0x00, 0x00, 0x00, 0x00, 0x00, 0x00, 0x60, 0x00, 0xc0,
   0x01, 0x00, 0x00, 0x00, 0x00, 0x00, 0x00, 0xf0, 0xff, 0xff, 0x01, 0x00,
   0x00, 0x00, 0x00, 0x00, 0x00, 0xf8, 0xff, 0xbf, 0x01, 0x00, 0x00, 0x00,
   0x00, 0x00, 0x00, 0x18, 0x00, 0xb0, 0x01, 0x00, 0x00, 0x00, 0x00, 0x00,
   0x00, 0x18, 0x00, 0xb0, 0x01, 0x00, 0x00, 0x00, 0x00, 0x00, 0x00, 0x18,
   0x82, 0xb0, 0x01, 0x00, 0x00, 0x00, 0x00, 0x00, 0x00, 0x18, 0x44, 0xb0,
   0x01, 0x00, 0x00, 0x00, 0x00, 0x00, 0x00, 0x18, 0x28, 0xb0, 0x01, 0x00,
   0x00, 0x00, 0x00, 0x00, 0x00, 0x18, 0x10, 0xb0, 0x01, 0x00, 0x00, 0x00,
   0x00, 0x00, 0x00, 0x18, 0x28, 0xb0, 0x01, 0x00, 0x00, 0x00, 0x00, 0x00,
   0x00, 0x18, 0x44, 0xb0, 0x01, 0x00, 0x00, 0x00, 0x00, 0x00, 0x00, 0x18,
   0x82, 0xb0, 0x01, 0x00, 0x00, 0x00, 0x00, 0x00, 0x00, 0x18, 0x00, 0xb0,
   0x01, 0x00, 0x00, 0x00, 0x00, 0x00, 0x00, 0x18, 0x00, 0xb0, 0x01, 0x00,
   0x00, 0x00, 0x00, 0x00, 0x00, 0xf8, 0xff, 0xbf, 0x01, 0x00, 0x00, 0x00,
   0x00, 0x00, 0x00, 0xfc, 0xff, 0x9f, 0x01, 0x00, 0x00, 0x00, 0x00, 0x00,
   0x00, 0x0c, 0x00, 0x98, 0x01, 0x00, 0x00, 0x00, 0x00, 0x00, 0x00, 0x06,
   0x00, 0xcc, 0x00, 0x00, 0x00, 0x00, 0x00, 0x00, 0x00, 0x06, 0x00, 0x6c,
   0x00, 0x00, 0x00, 0x00, 0x00, 0x00, 0x00, 0xff, 0xff, 0x37, 0x00, 0x00,
   0x00, 0x00, 0x00, 0x00, 0x00, 0xff, 0xff, 0x1f, 0x00, 0x00, 0x00, 0x00,
   0x00, 0x00, 0x00, 0x03, 0x00, 0x0e, 0x00, 0x00, 0x00, 0x00, 0x00, 0x00,
   0x00, 0xff, 0xff, 0x07, 0x00, 0x00, 0x00, 0x00, 0x00, 0x00, 0x00, 0xff,
   0xff, 0x03, 0x00, 0x00, 0x00, 0x00, 0x00, 0x00, 0x00, 0x00, 0x00, 0x00,
   0x00, 0x00, 0x00, 0x00, 0x00, 0x00, 0x00, 0x00, 0x00, 0x00, 0x00, 0x00,
   0x00, 0x00, 0x00, 0x00, 0x00, 0x00, 0x00, 0x00, 0x00, 0x00, 0x00, 0x00};
