#define h_width 12
#define h_height 12
static unsigned char h_bits[] = {
   0xff, 0x0f, 0x01, 0x08, 0x9d, 0x0b, 0x09, 0x09, 0x09, 0x09, 0x09, 0x09,
   0xf9, 0x09, 0x99, 0x09, 0x09, 0x09, 0x9d, 0x0b, 0x01, 0x08, 0xff, 0x0f};
