#define cpp_width 12
#define cpp_height 12
static unsigned char cpp_bits[] = {
   0xff, 0x0f, 0x01, 0x00, 0xf9, 0x01, 0x0d, 0x03, 0x05, 0x00, 0xe5, 0x0e,
   0xe5, 0x0e, 0x05, 0x00, 0x0d, 0x03, 0xf9, 0x01, 0x01, 0x00, 0xff, 0x0f};
