#define gnu-ascend_width 200
#define gnu-ascend_height 50
static char gnu-ascend_bits[] = {
   0x00, 0x00, 0x00, 0x00, 0x00, 0x00, 0x00, 0x00, 0x00, 0x00, 0x00, 0x00,
   0x00, 0x00, 0x00, 0x00, 0x00, 0x00, 0x00, 0x00, 0x00, 0x00, 0x00, 0x00,
   0x00, 0x00, 0x00, 0x00, 0x00, 0x00, 0x00, 0x00, 0x00, 0x00, 0x00, 0x00,
   0x00, 0x00, 0x00, 0x00, 0x00, 0x00, 0x00, 0x00, 0x00, 0x00, 0x00, 0x00,
   0x00, 0x00, 0x00, 0x00, 0x00, 0x00, 0x80, 0x00, 0x00, 0x00, 0x00, 0x00,
   0x00, 0x00, 0x00, 0x00, 0x00, 0x00, 0x00, 0x00, 0x00, 0x00, 0x00, 0x00,
   0x00, 0x00, 0x00, 0x00, 0x00, 0x00, 0x00, 0x00, 0x03, 0x00, 0x00, 0x80,
   0x00, 0x00, 0x00, 0x00, 0x00, 0x00, 0x00, 0x00, 0x00, 0x00, 0x00, 0x00,
   0x00, 0x00, 0x00, 0x00, 0x00, 0x00, 0x00, 0x00, 0x00, 0x0f, 0x00, 0x00,
   0x80, 0x00, 0x00, 0x00, 0x00, 0x00, 0x00, 0x00, 0x00, 0x00, 0x00, 0x00,
   0x00, 0x00, 0x00, 0x00, 0x00, 0x00, 0x00, 0x00, 0x00, 0x00, 0x1c, 0x00,
   0x00, 0xc0, 0x00, 0x00, 0x00, 0x00, 0x00, 0x00, 0x00, 0x00, 0x00, 0x00,
   0x00, 0x00, 0x00, 0x00, 0x00, 0x00, 0x00, 0x40, 0x00, 0x00, 0x00, 0x70,
   0x00, 0x00, 0xc0, 0x00, 0x00, 0x00, 0x00, 0x00, 0x00, 0x00, 0x00, 0x00,
   0x00, 0x00, 0x00, 0x00, 0x00, 0x00, 0x00, 0x00, 0x60, 0x00, 0x80, 0x03,
   0xf0, 0x00, 0x00, 0xc0, 0x00, 0x00, 0x00, 0x00, 0x00, 0x00, 0x00, 0x00,
   0x00, 0x00, 0x00, 0x00, 0x00, 0x00, 0x00, 0x00, 0x00, 0x30, 0x00, 0xee,
   0x0e, 0xa0, 0x01, 0x00, 0xa0, 0x00, 0x00, 0x00, 0x00, 0x00, 0x00, 0x00,
   0x00, 0x00, 0x00, 0x00, 0x00, 0x00, 0x00, 0x00, 0x00, 0x00, 0x38, 0xe0,
   0x39, 0x18, 0xa0, 0x01, 0x00, 0xa0, 0x00, 0xf0, 0x1f, 0x00, 0xe0, 0x3f,
   0xc0, 0xff, 0x7f, 0x10, 0x00, 0x40, 0xe0, 0xff, 0x01, 0x00, 0x00, 0x1c,
   0xf8, 0x30, 0x30, 0x20, 0x01, 0x00, 0xa0, 0x00, 0x18, 0xe0, 0x00, 0x10,
   0x40, 0x40, 0x00, 0x00, 0x10, 0x00, 0x40, 0x20, 0x00, 0x0e, 0x00, 0x00,
   0x1c, 0x78, 0x20, 0x60, 0x30, 0x01, 0x00, 0x90, 0x00, 0x06, 0x80, 0x01,
   0x08, 0x80, 0x40, 0x00, 0x00, 0x30, 0x00, 0x40, 0x20, 0x00, 0x30, 0x00,
   0x00, 0x0e, 0x3c, 0x00, 0x40, 0x98, 0x01, 0x00, 0x90, 0x00, 0x01, 0x00,
   0x03, 0x04, 0x00, 0x41, 0x00, 0x00, 0x30, 0x00, 0x40, 0x20, 0x00, 0x40,
   0x00, 0x00, 0x0b, 0x1e, 0x07, 0xdc, 0x8d, 0x01, 0x00, 0x90, 0x80, 0x01,
   0x00, 0x00, 0x02, 0x00, 0x40, 0x00, 0x00, 0x50, 0x00, 0x40, 0x20, 0x00,
   0x40, 0x00, 0x80, 0x09, 0x9f, 0xf1, 0xff, 0xc7, 0x00, 0x00, 0x88, 0x80,
   0x00, 0x00, 0x00, 0x02, 0x00, 0x40, 0x00, 0x00, 0x50, 0x00, 0x40, 0x20,
   0x00, 0x80, 0x00, 0x80, 0x88, 0x8f, 0x39, 0x1e, 0xff, 0x00, 0x00, 0x88,
   0x40, 0x00, 0x00, 0x00, 0x02, 0x00, 0x40, 0x00, 0x00, 0x90, 0x00, 0x40,
   0x20, 0x00, 0x80, 0x00, 0x80, 0x88, 0xc7, 0x0e, 0x28, 0xe0, 0x01, 0x00,
   0x88, 0x40, 0x00, 0x00, 0x00, 0x02, 0x00, 0x40, 0x00, 0x00, 0x90, 0x00,
   0x40, 0x20, 0x00, 0x00, 0x01, 0x80, 0x18, 0x64, 0x03, 0xd0, 0x00, 0x02,
   0x00, 0x84, 0x40, 0x00, 0x00, 0x00, 0x02, 0x00, 0x40, 0x00, 0x00, 0x10,
   0x01, 0x40, 0x20, 0x00, 0x00, 0x01, 0x80, 0x30, 0xb3, 0xa1, 0xaa, 0xfe,
   0x07, 0x00, 0x84, 0x40, 0x00, 0x00, 0x00, 0x02, 0x00, 0x40, 0x00, 0x00,
   0x10, 0x01, 0x40, 0x20, 0x00, 0x00, 0x01, 0x80, 0xe1, 0xd9, 0x5e, 0xd5,
   0x51, 0x01, 0x00, 0x84, 0x40, 0x00, 0x00, 0x00, 0x02, 0x00, 0x40, 0x00,
   0x00, 0x10, 0x02, 0x40, 0x20, 0x00, 0x00, 0x01, 0x00, 0x03, 0x4c, 0xa7,
   0xaa, 0x01, 0x00, 0x00, 0x82, 0x40, 0x00, 0x00, 0x00, 0x02, 0x00, 0x40,
   0x00, 0x00, 0x10, 0x02, 0x40, 0x20, 0x00, 0x00, 0x01, 0x00, 0x07, 0x67,
   0xcb, 0x55, 0x03, 0x00, 0x00, 0x82, 0x40, 0x00, 0x00, 0x00, 0x02, 0x00,
   0x40, 0x00, 0x00, 0x10, 0x04, 0x40, 0x20, 0x00, 0x00, 0x01, 0x00, 0xbc,
   0xb1, 0x35, 0xab, 0x03, 0x00, 0x00, 0x82, 0x40, 0x00, 0x00, 0x00, 0x02,
   0x00, 0x40, 0x00, 0x00, 0x10, 0x04, 0x40, 0x20, 0x00, 0x00, 0x01, 0x00,
   0x78, 0xb0, 0xa5, 0x55, 0x03, 0x00, 0x00, 0x81, 0x40, 0x00, 0x00, 0x00,
   0x02, 0x00, 0x40, 0x00, 0x00, 0x10, 0x08, 0x40, 0x20, 0x00, 0x00, 0x01,
   0x00, 0x30, 0x98, 0xbd, 0xab, 0x03, 0x00, 0x00, 0x81, 0x80, 0x00, 0x00,
   0x00, 0x02, 0x00, 0x40, 0x00, 0x00, 0x10, 0x08, 0x40, 0x20, 0x00, 0x00,
   0x01, 0x00, 0x08, 0xcf, 0x38, 0x55, 0x03, 0x00, 0x00, 0x81, 0x00, 0x01,
   0x00, 0x00, 0x02, 0x00, 0x40, 0x00, 0x00, 0x10, 0x10, 0x40, 0x20, 0x00,
   0x00, 0x01, 0x00, 0xfe, 0xcf, 0x40, 0xaa, 0x07, 0x00, 0x00, 0x81, 0x00,
   0x06, 0x00, 0x00, 0x02, 0x00, 0x40, 0x00, 0x00, 0x10, 0x10, 0x40, 0x20,
   0x00, 0x00, 0x01, 0x00, 0xaa, 0xab, 0x78, 0x55, 0x07, 0x00, 0x80, 0x80,
   0x00, 0x04, 0x00, 0x00, 0x02, 0x00, 0x40, 0x00, 0x00, 0x10, 0x20, 0x40,
   0x20, 0x00, 0x00, 0x01, 0x00, 0x80, 0xab, 0x31, 0xab, 0x06, 0x00, 0x80,
   0x80, 0x00, 0xf8, 0x1f, 0x00, 0x02, 0x00, 0x40, 0x00, 0x00, 0x10, 0x20,
   0x40, 0x20, 0x00, 0x00, 0x01, 0x00, 0xc0, 0x52, 0x03, 0x54, 0x07, 0x00,
   0x80, 0xff, 0x00, 0x00, 0x20, 0x00, 0x02, 0x00, 0xc0, 0xff, 0x01, 0x10,
   0x40, 0x40, 0x20, 0x00, 0x00, 0x01, 0x00, 0xe0, 0x56, 0x05, 0xac, 0x0e,
   0x00, 0x40, 0x80, 0x00, 0x00, 0x40, 0x00, 0x02, 0x00, 0x40, 0x00, 0x00,
   0x10, 0x40, 0x40, 0x20, 0x00, 0x00, 0x01, 0x00, 0xe0, 0x3c, 0x19, 0x58,
   0x0f, 0x00, 0x40, 0x80, 0x00, 0x00, 0x80, 0x00, 0x02, 0x00, 0x40, 0x00,
   0x00, 0x10, 0x80, 0x40, 0x20, 0x00, 0x00, 0x01, 0x00, 0xe0, 0x2d, 0x23,
   0xa0, 0x0e, 0x00, 0x40, 0x80, 0x00, 0x00, 0x00, 0x01, 0x02, 0x00, 0x40,
   0x00, 0x00, 0x10, 0x80, 0x40, 0x20, 0x00, 0x00, 0x01, 0x00, 0xe0, 0xa9,
   0x6a, 0x5f, 0x1b, 0x00, 0x20, 0x80, 0x00, 0x00, 0x00, 0x02, 0x02, 0x00,
   0x40, 0x00, 0x00, 0x10, 0x00, 0x41, 0x20, 0x00, 0x00, 0x01, 0x00, 0xf0,
   0x69, 0x56, 0xf1, 0x11, 0x00, 0x20, 0x80, 0x00, 0x00, 0x00, 0x04, 0x02,
   0x00, 0x40, 0x00, 0x00, 0x10, 0x00, 0x41, 0x20, 0x00, 0x00, 0x01, 0x00,
   0xf0, 0xcb, 0x55, 0xc1, 0x1d, 0x00, 0x20, 0x80, 0x00, 0x00, 0x00, 0x04,
   0x02, 0x00, 0x40, 0x00, 0x00, 0x10, 0x00, 0x42, 0x20, 0x00, 0x00, 0x01,
   0x00, 0xe0, 0x9b, 0xec, 0x89, 0x1c, 0x00, 0x10, 0x80, 0x00, 0x00, 0x00,
   0x04, 0x02, 0x00, 0x40, 0x00, 0x00, 0x10, 0x00, 0x42, 0x20, 0x00, 0x00,
   0x01, 0x00, 0xe0, 0xb3, 0xbb, 0xb3, 0x0c, 0x00, 0x10, 0x80, 0x00, 0x00,
   0x00, 0x04, 0x02, 0x00, 0x40, 0x00, 0x00, 0x10, 0x00, 0x44, 0x20, 0x00,
   0x00, 0x01, 0x00, 0xc0, 0x6f, 0xb3, 0x27, 0x0e, 0x00, 0x10, 0x80, 0x00,
   0x00, 0x00, 0x04, 0x02, 0x00, 0x40, 0x00, 0x00, 0x10, 0x00, 0x44, 0x20,
   0x00, 0x00, 0x01, 0x00, 0xc0, 0xef, 0xf6, 0x1f, 0x0e, 0x00, 0x08, 0x80,
   0x00, 0x00, 0x00, 0x04, 0x02, 0x00, 0x40, 0x00, 0x00, 0x10, 0x00, 0x48,
   0x20, 0x00, 0x00, 0x01, 0x00, 0x80, 0x8f, 0xed, 0xe7, 0x0f, 0x00, 0x08,
   0x80, 0x00, 0x00, 0x00, 0x02, 0x02, 0x00, 0x40, 0x00, 0x00, 0x10, 0x00,
   0x48, 0x20, 0x00, 0x00, 0x01, 0x00, 0x80, 0x7e, 0x39, 0x0f, 0x06, 0x00,
   0x08, 0x80, 0x80, 0x00, 0x00, 0x02, 0x02, 0x00, 0x40, 0x00, 0x00, 0x10,
   0x00, 0x50, 0x20, 0x00, 0x80, 0x00, 0x00, 0x00, 0x7e, 0x32, 0x0f, 0x03,
   0x00, 0x04, 0x80, 0x80, 0x01, 0x00, 0x01, 0x02, 0x00, 0x40, 0x00, 0x00,
   0x10, 0x00, 0x50, 0x20, 0x00, 0xc0, 0x00, 0x00, 0x00, 0xfc, 0xb7, 0xff,
   0x03, 0x00, 0x04, 0x80, 0x00, 0x03, 0x00, 0x01, 0x04, 0x00, 0x41, 0x00,
   0x00, 0x10, 0x00, 0x60, 0x20, 0x00, 0x60, 0x00, 0x00, 0x00, 0xf4, 0xe7,
   0xf0, 0x01, 0x00, 0x04, 0x80, 0x00, 0x06, 0xc0, 0x00, 0x08, 0x80, 0x40,
   0x00, 0x00, 0x10, 0x00, 0x60, 0x20, 0x00, 0x30, 0x00, 0x00, 0x00, 0xd0,
   0xff, 0x00, 0x00, 0x00, 0x02, 0x80, 0x00, 0x18, 0x30, 0x00, 0x10, 0x40,
   0x40, 0x00, 0x00, 0x10, 0x00, 0x40, 0x20, 0x00, 0x18, 0x00, 0x00, 0x00,
   0xc0, 0x7f, 0x00, 0x00, 0x00, 0x02, 0x80, 0x00, 0xe0, 0x0f, 0x00, 0xe0,
   0x3f, 0xc0, 0xff, 0x7f, 0x10, 0x00, 0x40, 0xe0, 0xff, 0x07, 0x00, 0x00,
   0x00, 0x00, 0x15, 0x00, 0x00, 0x00, 0x00, 0x00, 0x00, 0x00, 0x00, 0x00,
   0x00, 0x00, 0x00, 0x00, 0x00, 0x00, 0x00, 0x00, 0x00, 0x00, 0x00, 0x00,
   0x00, 0x00, 0x00, 0x00, 0x00, 0x00, 0x00, 0x00, 0x00, 0x00, 0x00, 0x00,
   0x00, 0x00, 0x00, 0x00, 0x00, 0x00, 0x00, 0x00, 0x00, 0x00, 0x00, 0x00,
   0x00, 0x00, 0x00, 0x00, 0x00, 0x00, 0x00, 0x00, 0x00, 0x00, 0x00, 0x00,
   0x00, 0x00, 0x00, 0x00, 0x00, 0x00, 0x00, 0x00, 0x00, 0x00, 0x00, 0x00,
   0x00, 0x00};
