#define opt_width 12
#define opt_height 12
static unsigned char opt_bits[] = {
   0x00, 0x00, 0x00, 0x06, 0x00, 0x03, 0x00, 0x01, 0xfe, 0x01, 0x82, 0x01,
   0xca, 0x01, 0x5a, 0x01, 0x72, 0x01, 0x22, 0x01, 0xfe, 0x01, 0x00, 0x00};
