#define wfeet_width 16
#define wfeet_height 16
static char wfeet_bits[] = {
   0x00, 0x00, 0xfe, 0x00, 0x01, 0x01, 0x7e, 0x01, 0x01, 0x01, 0x7c, 0x01,
   0x42, 0x01, 0x88, 0x00, 0x88, 0x00, 0x88, 0x07, 0x08, 0x3a, 0x08, 0xd5,
   0x88, 0x8a, 0x18, 0x80, 0x10, 0xc0, 0xf0, 0x7f};
