#define a4l_width 12
#define a4l_height 12
static unsigned char a4l_bits[] = {
   0xff, 0x0f, 0x21, 0x08, 0xad, 0x0b, 0x21, 0x08, 0xa1, 0x0b, 0x21, 0x08,
   0xa1, 0x0b, 0x21, 0x08, 0xa1, 0x0b, 0x21, 0x08, 0x21, 0x08, 0xff, 0x0f};
