#define a4s_width 12
#define a4s_height 12
static unsigned char a4s_bits[] = {
   0xff, 0x07, 0x01, 0x00, 0xdd, 0x01, 0x01, 0x00, 0xdd, 0x02, 0x01, 0x00,
   0xb5, 0x0d, 0x01, 0x00, 0xdd, 0x03, 0x01, 0x00, 0xed, 0x0d, 0x01, 0x00};
