#define stop_width 16
#define stop_height 16

static char stop_bits[] = {
 0xf0, 0x0f, 0xf8, 0x1f, 0x0c, 0x30, 0x06, 0x60, 0x13, 0xc8, 0x23, 0xc4,
 0x43, 0xc2, 0x83, 0xc1, 0x83, 0xc1, 0x43, 0xc2, 0x23, 0xc4, 0x13, 0xc8,
 0x06, 0x60, 0x0c, 0x30, 0xf8, 0x1f, 0xf0, 0x0f };
