#define toolAttributes_width 16
#define toolAttributes_height 16
static char toolAttributes_bits[] = {
   0xff, 0xff, 0x01, 0x80, 0x01, 0x80, 0xf9, 0x9f, 0xf9, 0x9f, 0x01, 0x80,
   0x01, 0x80, 0xf9, 0x9f, 0xf9, 0x9f, 0x01, 0x80, 0x01, 0x80, 0xf9, 0x9f,
   0xf9, 0x9f, 0x01, 0x80, 0x01, 0x80, 0xff, 0xff};
