<?xml version="1.0" encoding="UTF-8" standalone="no"?>
<!-- Created with Inkscape (http://www.inkscape.org/) -->
<svg
   xmlns:dc="http://purl.org/dc/elements/1.1/"
   xmlns:cc="http://web.resource.org/cc/"
   xmlns:rdf="http://www.w3.org/1999/02/22-rdf-syntax-ns#"
   xmlns:svg="http://www.w3.org/2000/svg"
   xmlns="http://www.w3.org/2000/svg"
   xmlns:sodipodi="http://sodipodi.sourceforge.net/DTD/sodipodi-0.dtd"
   xmlns:inkscape="http://www.inkscape.org/namespaces/inkscape"
   version="1.0"
   width="360"
   height="240"
   id="svg1406"
   sodipodi:version="0.32"
   inkscape:version="0.45"
   sodipodi:docname="ascend-loading.svg"
   sodipodi:docbase="/home/john/ascend/pygtk/glade"
   inkscape:output_extension="org.inkscape.output.svg.inkscape"
   sodipodi:modified="true">
  <metadata
     id="metadata2231">
    <rdf:RDF>
      <cc:Work
         rdf:about="">
        <dc:format>image/svg+xml</dc:format>
        <dc:type
           rdf:resource="http://purl.org/dc/dcmitype/StillImage" />
      </cc:Work>
    </rdf:RDF>
  </metadata>
  <sodipodi:namedview
     inkscape:window-height="674"
     inkscape:window-width="1014"
     inkscape:pageshadow="2"
     inkscape:pageopacity="0.0"
     guidetolerance="10.0"
     gridtolerance="10.0"
     objecttolerance="10.0"
     borderopacity="1.0"
     bordercolor="#666666"
     pagecolor="#ffffff"
     id="base"
     width="360px"
     height="240px"
     inkscape:zoom="1.5898438"
     inkscape:cx="400.9536"
     inkscape:cy="91.439804"
     inkscape:window-x="5"
     inkscape:window-y="73"
     inkscape:current-layer="svg1406" />
  <defs
     id="defs1409">
    <marker
       inkscape:stockid="Club"
       orient="auto"
       refY="0.0"
       refX="0.0"
       id="Club"
       style="overflow:visible">
      <path
         id="path6208"
         d="M -1.5971367,-7.0977635 C -3.4863874,-7.0977635 -5.0235187,-5.5606321 -5.0235187,-3.6713813 C -5.0235187,-3.0147015 -4.7851656,-2.4444556 -4.4641095,-1.9232271 C -4.5028609,-1.8911157 -4.5437814,-1.8647646 -4.5806531,-1.8299921 C -5.2030765,-2.6849849 -6.1700514,-3.2751330 -7.3077730,-3.2751330 C -9.1970245,-3.2751331 -10.734155,-1.7380016 -10.734155,0.15124914 C -10.734155,2.0404999 -9.1970245,3.5776313 -7.3077730,3.5776313 C -6.3143268,3.5776313 -5.4391540,3.1355702 -4.8137404,2.4588126 C -4.9384274,2.8137041 -5.0235187,3.1803000 -5.0235187,3.5776313 C -5.0235187,5.4668819 -3.4863874,7.0040135 -1.5971367,7.0040135 C 0.29211394,7.0040135 1.8292454,5.4668819 1.8292454,3.5776313 C 1.8292454,2.7842354 1.5136868,2.0838028 1.0600576,1.5031550 C 2.4152718,1.7663868 3.7718375,2.2973711 4.7661444,3.8340272 C 4.0279463,3.0958289 3.5540908,1.7534117 3.5540908,-0.058529361 L 2.9247554,-0.10514681 L 3.5074733,-0.12845553 C 3.5074733,-1.9403966 3.9580199,-3.2828138 4.6962183,-4.0210121 C 3.7371277,-2.5387813 2.4390549,-1.9946496 1.1299838,-1.7134486 C 1.5341802,-2.2753578 1.8292454,-2.9268556 1.8292454,-3.6713813 C 1.8292454,-5.5606319 0.29211394,-7.0977635 -1.5971367,-7.0977635 z "
         style="fill-rule:evenodd;stroke:#000000;stroke-width:0.74587913pt;marker-start:none"
         transform="scale(0.6)" />
    </marker>
  </defs>
  <rect
     style="opacity:1;fill:#ffffff;fill-opacity:1;stroke:#000000;stroke-width:3.06493235;stroke-linecap:round;stroke-linejoin:round;stroke-miterlimit:6.30000019;stroke-dasharray:none;stroke-opacity:1"
     id="rect2289"
     width="356.75601"
     height="237.40642"
     x="1.6978155"
     y="1.2972465" />
  <g
     id="g4956"
     transform="translate(92.699211,88.074964)">
    <path
       d="M 52.091927,9.2081671 C 52.091927,12.550088 49.382765,15.25925 46.040844,15.25925 C 42.698923,15.25925 39.989761,12.550088 39.989761,9.2081671 C 39.989761,5.8662462 42.698923,3.1570841 46.040844,3.1570841 C 49.382765,3.1570841 52.091927,5.8662462 52.091927,9.2081671 L 52.091927,9.2081671 z "
       style="fill:#00c8ff;fill-opacity:1;fill-rule:nonzero;stroke:#000000;stroke-width:1px;stroke-linecap:butt;stroke-linejoin:miter;stroke-opacity:1"
       id="path1415" />
    <path
       d="M 47.00551,18.59173 C 47.00551,23.919429 42.843609,28.238383 37.709644,28.238383 C 32.575679,28.238383 28.413778,23.919429 28.413778,18.59173 C 28.413778,13.264031 32.575679,8.9450768 37.709644,8.9450768 C 42.843609,8.9450768 47.00551,13.264031 47.00551,18.59173 z "
       transform="translate(0.526181,-0.526181)"
       style="fill:none;fill-opacity:1;fill-rule:nonzero;stroke:none"
       id="path3198" />
    <path
       d="M 52.091927,9.2081671 C 52.091927,12.550088 49.382765,15.25925 46.040844,15.25925 C 42.698923,15.25925 39.989761,12.550088 39.989761,9.2081671 C 39.989761,5.8662462 42.698923,3.1570841 46.040844,3.1570841 C 49.382765,3.1570841 52.091927,5.8662462 52.091927,9.2081671 L 52.091927,9.2081671 z "
       transform="matrix(1.468532,0,0,1.468532,-33.28891,2.630761)"
       style="fill:#00d500;fill-opacity:1;fill-rule:nonzero;stroke:#000000;stroke-width:1px;stroke-linecap:butt;stroke-linejoin:miter;stroke-opacity:1"
       id="path4073" />
    <path
       d="M 52.091927,9.2081671 C 52.091927,12.550088 49.382765,15.25925 46.040844,15.25925 C 42.698923,15.25925 39.989761,12.550088 39.989761,9.2081671 C 39.989761,5.8662462 42.698923,3.1570841 46.040844,3.1570841 C 49.382765,3.1570841 52.091927,5.8662462 52.091927,9.2081671 L 52.091927,9.2081671 z "
       transform="matrix(2.03077,0,0,2.084316,-66.13695,12.37813)"
       style="fill:#b900c4;fill-opacity:1;fill-rule:nonzero;stroke:#000000;stroke-width:1px;stroke-linecap:butt;stroke-linejoin:miter;stroke-opacity:1"
       id="path4077" />
    <path
       d="M 52.091927,9.2081671 C 52.091927,12.550088 49.382765,15.25925 46.040844,15.25925 C 42.698923,15.25925 39.989761,12.550088 39.989761,9.2081671 C 39.989761,5.8662462 42.698923,3.1570841 46.040844,3.1570841 C 49.382765,3.1570841 52.091927,5.8662462 52.091927,9.2081671 L 52.091927,9.2081671 z "
       transform="matrix(2.418594,0,0,2.446112,-73.13532,24.67373)"
       style="fill:#fb0000;fill-opacity:1;fill-rule:nonzero;stroke:#000000;stroke-width:1px;stroke-linecap:butt;stroke-linejoin:miter;stroke-opacity:1"
       id="path4079" />
  </g>
  <text
     xml:space="preserve"
     style="font-size:12px;font-style:normal;font-weight:normal;fill:#000000;fill-opacity:1;stroke:none;stroke-width:1px;stroke-linecap:butt;stroke-linejoin:miter;stroke-opacity:1;font-family:Bitstream Vera Sans"
     x="187.92216"
     y="115.00909"
     id="text2233"><tspan
       sodipodi:role="line"
       id="tspan2235"
       x="187.92216"
       y="115.00909"
       style="font-family:DejaVu Sans">loading</tspan><tspan
       sodipodi:role="line"
       x="187.92216"
       y="130.00909"
       style="font-family:DejaVu Sans"
       id="tspan2239">ASCEND...</tspan><tspan
       sodipodi:role="line"
       x="187.92216"
       y="145.00909"
       id="tspan2237"
       style="font-family:DejaVu Sans" /></text>
</svg>
